<?xml version="1.0" standalone="no"?>
<!DOCTYPE svg PUBLIC "-//W3C//DTD SVG 20010904//EN"
 "http://www.w3.org/TR/2001/REC-SVG-20010904/DTD/svg10.dtd">
<svg version="1.0" xmlns="http://www.w3.org/2000/svg"
 width="103.000000pt" height="103.000000pt" viewBox="0 0 103.000000 103.000000"
 preserveAspectRatio="xMidYMid meet">
<metadata>
Created by potrace 1.11, written by Peter Selinger 2001-2013
</metadata>
<g transform="translate(0.000000,103.000000) scale(0.100000,-0.100000)"
fill="#000000" stroke="none">
<path d="M0 515 l0 -515 515 0 515 0 0 515 0 515 -515 0 -515 0 0 -515z m296
201 c20 -20 18 -26 -11 -26 -24 0 -34 18 -18 33 9 10 13 9 29 -7z m-16 -71 c0
-27 -12 -32 -29 -12 -8 10 -7 17 1 25 19 19 28 14 28 -13z m30 15 c0 -5 -4
-10 -10 -10 -5 0 -10 5 -10 10 0 6 5 10 10 10 6 0 10 -4 10 -10z m-30 -76 c0
-9 11 -14 30 -14 23 0 30 -4 30 -20 0 -11 4 -20 9 -20 10 0 23 -42 15 -49 -3
-3 -9 1 -14 9 -7 10 -10 11 -10 3 0 -21 -25 -15 -49 11 -24 25 -61 41 -61 25
0 -5 5 -9 11 -9 11 0 39 -24 39 -34 0 -11 -61 -6 -74 6 -9 9 -10 18 -2 35 6
12 14 23 19 23 4 0 7 13 7 29 0 25 3 28 25 23 14 -2 25 -11 25 -18z m-40 -145
c0 -11 -4 -17 -10 -14 -5 3 -10 13 -10 21 0 8 5 14 10 14 6 0 10 -9 10 -21z
m70 -9 c0 -9 -25 -20 -46 -20 -8 0 -14 6 -14 14 0 10 10 14 30 14 17 -1 30 -4
30 -8z m54 -17 c4 -10 1 -22 -7 -28 -7 -5 -16 -17 -20 -25 -3 -9 -6 -4 -6 12
-1 14 -4 33 -7 42 -4 11 0 16 14 16 11 0 23 -8 26 -17z m186 -8 c0 -8 -2 -15
-4 -15 -2 0 -6 7 -10 15 -3 8 -1 15 4 15 6 0 10 -7 10 -15z m-2 -111 c-1 -9
-8 -19 -14 -21 -16 -5 -24 33 -11 46 14 14 30 -1 25 -25z m-118 -80 c0 -8 -6
-14 -14 -14 -9 0 -12 7 -9 20 6 22 23 18 23 -6z"/>
</g>
</svg>
